<svg id="Layer_1" data-name="Layer 1" xmlns="http://www.w3.org/2000/svg" xmlns:xlink="http://www.w3.org/1999/xlink" viewBox="0 0 261.85 784"><defs><style>.cls-1,.cls-8,.cls-97{fill:none;}.cls-2{clip-path:url(#clip-path);}.cls-3{clip-path:url(#clip-path-2);}.cls-4{clip-path:url(#clip-path-3);}.cls-5{fill:#6de7d0;}.cls-6{clip-path:url(#clip-path-4);}.cls-7{fill:#fa7a75;}.cls-8{stroke:#fff;}.cls-9{opacity:0.31;}.cls-10{clip-path:url(#clip-path-8);}.cls-11{clip-path:url(#clip-path-9);}.cls-12{clip-path:url(#clip-path-10);}.cls-13{clip-path:url(#clip-path-11);}.cls-14{clip-path:url(#clip-path-12);}.cls-15{clip-path:url(#clip-path-13);}.cls-16{fill:#484c73;}.cls-17{clip-path:url(#clip-path-14);}.cls-18{clip-path:url(#clip-path-16);}.cls-19{clip-path:url(#clip-path-18);}.cls-20{clip-path:url(#clip-path-20);}.cls-21{fill:#fdfdfd;}.cls-22{clip-path:url(#clip-path-22);}.cls-23{clip-path:url(#clip-path-24);}.cls-24{clip-path:url(#clip-path-26);}.cls-25{clip-path:url(#clip-path-28);}.cls-26{clip-path:url(#clip-path-30);}.cls-27{clip-path:url(#clip-path-32);}.cls-28{clip-path:url(#clip-path-34);}.cls-29{clip-path:url(#clip-path-35);}.cls-30{clip-path:url(#clip-path-37);}.cls-31{clip-path:url(#clip-path-39);}.cls-32{clip-path:url(#clip-path-41);}.cls-33{clip-path:url(#clip-path-43);}.cls-34{clip-path:url(#clip-path-45);}.cls-35{clip-path:url(#clip-path-47);}.cls-36{clip-path:url(#clip-path-49);}.cls-37{clip-path:url(#clip-path-50);}.cls-38{clip-path:url(#clip-path-51);}.cls-39{clip-path:url(#clip-path-53);}.cls-40{clip-path:url(#clip-path-55);}.cls-41{clip-path:url(#clip-path-57);}.cls-42{clip-path:url(#clip-path-59);}.cls-43{clip-path:url(#clip-path-61);}.cls-44{clip-path:url(#clip-path-63);}.cls-45{clip-path:url(#clip-path-65);}.cls-46{clip-path:url(#clip-path-66);}.cls-47{clip-path:url(#clip-path-67);}.cls-48{clip-path:url(#clip-path-69);}.cls-49{clip-path:url(#clip-path-71);}.cls-50{clip-path:url(#clip-path-73);}.cls-51{clip-path:url(#clip-path-75);}.cls-52{clip-path:url(#clip-path-77);}.cls-53{clip-path:url(#clip-path-79);}.cls-54{clip-path:url(#clip-path-81);}.cls-55{clip-path:url(#clip-path-82);}.cls-56{clip-path:url(#clip-path-83);}.cls-57{clip-path:url(#clip-path-85);}.cls-58{clip-path:url(#clip-path-87);}.cls-59{clip-path:url(#clip-path-89);}.cls-60{clip-path:url(#clip-path-91);}.cls-61{clip-path:url(#clip-path-93);}.cls-62{clip-path:url(#clip-path-95);}.cls-63{clip-path:url(#clip-path-97);}.cls-64{clip-path:url(#clip-path-99);}.cls-65{clip-path:url(#clip-path-100);}.cls-66{clip-path:url(#clip-path-102);}.cls-67{clip-path:url(#clip-path-104);}.cls-68{clip-path:url(#clip-path-106);}.cls-69{clip-path:url(#clip-path-108);}.cls-70{clip-path:url(#clip-path-110);}.cls-71{clip-path:url(#clip-path-112);}.cls-72{clip-path:url(#clip-path-114);}.cls-73{clip-path:url(#clip-path-115);}.cls-74{clip-path:url(#clip-path-116);}.cls-75{clip-path:url(#clip-path-118);}.cls-76{clip-path:url(#clip-path-119);}.cls-77{clip-path:url(#clip-path-120);}.cls-78{clip-path:url(#clip-path-122);}.cls-79{clip-path:url(#clip-path-123);}.cls-80{clip-path:url(#clip-path-124);}.cls-81{clip-path:url(#clip-path-126);}.cls-82{clip-path:url(#clip-path-127);}.cls-83{clip-path:url(#clip-path-128);}.cls-84{clip-path:url(#clip-path-130);}.cls-85{clip-path:url(#clip-path-131);}.cls-86{clip-path:url(#clip-path-132);}.cls-87{clip-path:url(#clip-path-134);}.cls-88{clip-path:url(#clip-path-135);}.cls-89{clip-path:url(#clip-path-136);}.cls-90{clip-path:url(#clip-path-138);}.cls-91{clip-path:url(#clip-path-139);}.cls-92{clip-path:url(#clip-path-140);}.cls-93{clip-path:url(#clip-path-142);}.cls-94{clip-path:url(#clip-path-143);}.cls-95{clip-path:url(#clip-path-144);}.cls-96{clip-path:url(#clip-path-146);}.cls-97{stroke:#0f1b53;}</style><clipPath id="clip-path"><rect class="cls-1" width="273" height="784"/></clipPath><clipPath id="clip-path-2"><path class="cls-1" d="M185.66,291.1c1.4,27.1-13.1,56.2-37.4,76.2s-58.5,31.1-82,16.8-36.4-53.9-64.2-77-70.4-29.8-102.1-55.2-52.6-69.7-45.6-108.7,41.5-72.8,79.9-91.2,80.6-21.5,120.9-24.3,78.7-5.4,97.6,16.3,18.3,67.8,14.5,100.1-10.6,50.8-5.4,72.7S184.26,264,185.66,291.1Z"/></clipPath><clipPath id="clip-path-3"><rect class="cls-1" x="-1.74" y="-102" width="1920" height="2766"/></clipPath><clipPath id="clip-path-4"><path class="cls-1" d="M83.9,629C71.23,652.05,70.37,684,55.55,704s-43.68,28.1-63.3,15.53-29.9-45.72-45.7-67-37-30.62-37.77-43.94S-72.28,578-55.3,569.14-24,559.88-18,535.88s3.57-71.36,16.3-90.14,40.41-8.84,61.94,6.63,36.91,36.57,50.07,58.42,24.18,44.55,17.41,62.9S96.58,606.09,83.9,629Z"/></clipPath><clipPath id="clip-path-8"><rect class="cls-1" x="31.26" y="341" width="96" height="164"/></clipPath><clipPath id="clip-path-9"><rect class="cls-1" x="31.27" y="348.37" width="28.2" height="156.04"/></clipPath><clipPath id="clip-path-10"><rect class="cls-1" x="30.26" y="341" width="93" height="164"/></clipPath><clipPath id="clip-path-11"><rect class="cls-1" x="28.26" y="348" width="27" height="157"/></clipPath><clipPath id="clip-path-12"><path class="cls-1" d="M46.06,504.41c-2.88,0-5.49-8.73-7.38-22.85-.48-3.53-.9-7.4-1.28-11.55C29,436.58,29,403.58,38.68,371.23c.47-3.53,1-6.73,1.54-9.53,1.67-8.41,3.68-13.33,5.84-13.33s3.92,4.32,5.52,11.79c.53,2.49,1,5.33,1.5,8.48a38.05,38.05,0,0,1-.4,17.94c-8.16,29,1.63,57,1.59,85.91q-.39,4.58-.83,9.07c-.47,3.53-1,6.72-1.54,9.53-1.67,8.41-3.68,13.32-5.84,13.32"/></clipPath><clipPath id="clip-path-13"><rect class="cls-1" x="31.26" y="348" width="29" height="157"/></clipPath><clipPath id="clip-path-14"><path class="cls-1" d="M96.54,492.88c-9-3.3-11-13.3-12-20.3a76.91,76.91,0,0,1-.31-8.85c.31-6.15-1.69-13.15,4.31-17.15,5-2,7,4,8.69,6.5a27.51,27.51,0,0,1,1.05,9.51c0,2.42-.09,5-.13,7.5-.09,5.08,0,10.21,1.31,14.58.45,5-.58,8.08-2.9,8.22"/></clipPath><clipPath id="clip-path-16"><path class="cls-1" d="M105.2,423c-8.68-10.44-5.68-26.44,1-36.58a20.82,20.82,0,0,1,5.61-5.92,10.49,10.49,0,0,1,6.66-1.94c8.66,1.33,2.22,11.55-3.18,22.32a79.51,79.51,0,0,0-3.6,8.06,24.67,24.67,0,0,0-1.71,7.48c-1.22,4.17-2.92,6.63-4.83,6.58"/></clipPath><clipPath id="clip-path-18"><path class="cls-1" d="M80.09,432.07c-18.57-14.5-3.57-38.5-4.22-57.24.27-3.84.62-7.48,1.07-10.84,1.8-13.46,5.13-22.49,8.94-22.49,2.86,0,5.45,5.08,7.33,13.3.62,2.74,1.17,5.83,1.62,9.19a58.71,58.71,0,0,1,.88,10.25,75.58,75.58,0,0,1-.72,10.2c-1.47,14.14-9.47,27.14-10.35,41.46-1.21,3.82-2.73,6.06-4.55,6.17"/></clipPath><clipPath id="clip-path-20"><path class="cls-1" d="M252.76,150.5a4,4,0,1,1-4-4,4,4,0,0,1,4,4"/></clipPath><clipPath id="clip-path-22"><path class="cls-1" d="M252.76,178.5a4,4,0,1,1-4-4,4,4,0,0,1,4,4"/></clipPath><clipPath id="clip-path-24"><path class="cls-1" d="M252.76,206.5a4,4,0,1,1-4-4,4,4,0,0,1,4,4"/></clipPath><clipPath id="clip-path-26"><path class="cls-1" d="M252.76,234.5a4,4,0,1,1-4-4,4,4,0,0,1,4,4"/></clipPath><clipPath id="clip-path-28"><path class="cls-1" d="M252.76,262.5a4,4,0,1,1-4-4,4,4,0,0,1,4,4"/></clipPath><clipPath id="clip-path-30"><path class="cls-1" d="M252.76,290.5a4,4,0,1,1-4-4,4,4,0,0,1,4,4"/></clipPath><clipPath id="clip-path-32"><rect class="cls-1" x="244.76" y="314.5" width="8" height="8"/></clipPath><clipPath id="clip-path-34"><rect class="cls-1" x="244.26" y="314" width="9" height="9"/></clipPath><clipPath id="clip-path-35"><path class="cls-1" d="M252.76,318.5a4,4,0,1,1-4-4,4,4,0,0,1,4,4"/></clipPath><clipPath id="clip-path-37"><path class="cls-1" d="M224.76,150.5a4,4,0,1,1-4-4,4,4,0,0,1,4,4"/></clipPath><clipPath id="clip-path-39"><path class="cls-1" d="M224.76,178.5a4,4,0,1,1-4-4,4,4,0,0,1,4,4"/></clipPath><clipPath id="clip-path-41"><path class="cls-1" d="M224.76,206.5a4,4,0,1,1-4-4,4,4,0,0,1,4,4"/></clipPath><clipPath id="clip-path-43"><path class="cls-1" d="M224.76,234.5a4,4,0,1,1-4-4,4,4,0,0,1,4,4"/></clipPath><clipPath id="clip-path-45"><path class="cls-1" d="M224.76,262.5a4,4,0,1,1-4-4,4,4,0,0,1,4,4"/></clipPath><clipPath id="clip-path-47"><path class="cls-1" d="M224.76,290.5a4,4,0,1,1-4-4,4,4,0,0,1,4,4"/></clipPath><clipPath id="clip-path-49"><rect class="cls-1" x="216.76" y="314.5" width="8" height="8"/></clipPath><clipPath id="clip-path-50"><rect class="cls-1" x="216.26" y="314" width="9" height="9"/></clipPath><clipPath id="clip-path-51"><path class="cls-1" d="M224.76,318.5a4,4,0,1,1-4-4,4,4,0,0,1,4,4"/></clipPath><clipPath id="clip-path-53"><path class="cls-1" d="M196.76,150.5a4,4,0,1,1-4-4,4,4,0,0,1,4,4"/></clipPath><clipPath id="clip-path-55"><path class="cls-1" d="M196.76,178.5a4,4,0,1,1-4-4,4,4,0,0,1,4,4"/></clipPath><clipPath id="clip-path-57"><path class="cls-1" d="M196.76,206.5a4,4,0,1,1-4-4,4,4,0,0,1,4,4"/></clipPath><clipPath id="clip-path-59"><path class="cls-1" d="M196.76,234.5a4,4,0,1,1-4-4,4,4,0,0,1,4,4"/></clipPath><clipPath id="clip-path-61"><path class="cls-1" d="M196.76,262.5a4,4,0,1,1-4-4,4,4,0,0,1,4,4"/></clipPath><clipPath id="clip-path-63"><path class="cls-1" d="M196.76,290.5a4,4,0,1,1-4-4,4,4,0,0,1,4,4"/></clipPath><clipPath id="clip-path-65"><rect class="cls-1" x="188.76" y="314.5" width="8" height="8"/></clipPath><clipPath id="clip-path-66"><rect class="cls-1" x="188.26" y="314" width="9" height="9"/></clipPath><clipPath id="clip-path-67"><path class="cls-1" d="M196.76,318.5a4,4,0,1,1-4-4,4,4,0,0,1,4,4"/></clipPath><clipPath id="clip-path-69"><path class="cls-1" d="M168.76,150.5a4,4,0,1,1-4-4,4,4,0,0,1,4,4"/></clipPath><clipPath id="clip-path-71"><path class="cls-1" d="M168.76,178.5a4,4,0,1,1-4-4,4,4,0,0,1,4,4"/></clipPath><clipPath id="clip-path-73"><path class="cls-1" d="M168.76,206.5a4,4,0,1,1-4-4,4,4,0,0,1,4,4"/></clipPath><clipPath id="clip-path-75"><path class="cls-1" d="M168.76,234.5a4,4,0,1,1-4-4,4,4,0,0,1,4,4"/></clipPath><clipPath id="clip-path-77"><path class="cls-1" d="M168.76,262.5a4,4,0,1,1-4-4,4,4,0,0,1,4,4"/></clipPath><clipPath id="clip-path-79"><path class="cls-1" d="M168.76,290.5a4,4,0,1,1-4-4,4,4,0,0,1,4,4"/></clipPath><clipPath id="clip-path-81"><rect class="cls-1" x="160.76" y="314.5" width="8" height="8"/></clipPath><clipPath id="clip-path-82"><rect class="cls-1" x="160.26" y="314" width="9" height="9"/></clipPath><clipPath id="clip-path-83"><path class="cls-1" d="M168.76,318.5a4,4,0,1,1-4-4,4,4,0,0,1,4,4"/></clipPath><clipPath id="clip-path-85"><path class="cls-1" d="M140.76,150.5a4,4,0,1,1-4-4,4,4,0,0,1,4,4"/></clipPath><clipPath id="clip-path-87"><path class="cls-1" d="M140.76,178.5a4,4,0,1,1-4-4,4,4,0,0,1,4,4"/></clipPath><clipPath id="clip-path-89"><path class="cls-1" d="M140.76,206.5a4,4,0,1,1-4-4,4,4,0,0,1,4,4"/></clipPath><clipPath id="clip-path-91"><path class="cls-1" d="M140.76,234.5a4,4,0,1,1-4-4,4,4,0,0,1,4,4"/></clipPath><clipPath id="clip-path-93"><path class="cls-1" d="M140.76,262.5a4,4,0,1,1-4-4,4,4,0,0,1,4,4"/></clipPath><clipPath id="clip-path-95"><path class="cls-1" d="M140.76,290.5a4,4,0,1,1-4-4,4,4,0,0,1,4,4"/></clipPath><clipPath id="clip-path-97"><rect class="cls-1" x="132.76" y="314.5" width="8" height="8"/></clipPath><clipPath id="clip-path-99"><rect class="cls-1" x="132.26" y="314" width="9" height="9"/></clipPath><clipPath id="clip-path-100"><path class="cls-1" d="M140.76,318.5a4,4,0,1,1-4-4,4,4,0,0,1,4,4"/></clipPath><clipPath id="clip-path-102"><path class="cls-1" d="M112.76,150.5a4,4,0,1,1-4-4,4,4,0,0,1,4,4"/></clipPath><clipPath id="clip-path-104"><path class="cls-1" d="M112.76,178.5a4,4,0,1,1-4-4,4,4,0,0,1,4,4"/></clipPath><clipPath id="clip-path-106"><path class="cls-1" d="M112.76,206.5a4,4,0,1,1-4-4,4,4,0,0,1,4,4"/></clipPath><clipPath id="clip-path-108"><path class="cls-1" d="M112.76,234.5a4,4,0,1,1-4-4,4,4,0,0,1,4,4"/></clipPath><clipPath id="clip-path-110"><path class="cls-1" d="M112.76,262.5a4,4,0,1,1-4-4,4,4,0,0,1,4,4"/></clipPath><clipPath id="clip-path-112"><path class="cls-1" d="M112.76,290.5a4,4,0,1,1-4-4,4,4,0,0,1,4,4"/></clipPath><clipPath id="clip-path-114"><rect class="cls-1" x="104.76" y="314.5" width="8" height="8"/></clipPath><clipPath id="clip-path-115"><rect class="cls-1" x="104.26" y="314" width="9" height="9"/></clipPath><clipPath id="clip-path-116"><path class="cls-1" d="M112.76,318.5a4,4,0,1,1-4-4,4,4,0,0,1,4,4"/></clipPath><clipPath id="clip-path-118"><rect class="cls-1" x="76.76" y="146.5" width="8" height="8"/></clipPath><clipPath id="clip-path-119"><rect class="cls-1" x="76.26" y="146" width="9" height="9"/></clipPath><clipPath id="clip-path-120"><path class="cls-1" d="M84.76,150.5a4,4,0,1,1-4-4,4,4,0,0,1,4,4"/></clipPath><clipPath id="clip-path-122"><rect class="cls-1" x="76.76" y="174.5" width="8" height="8"/></clipPath><clipPath id="clip-path-123"><rect class="cls-1" x="76.26" y="174" width="9" height="9"/></clipPath><clipPath id="clip-path-124"><path class="cls-1" d="M84.76,178.5a4,4,0,1,1-4-4,4,4,0,0,1,4,4"/></clipPath><clipPath id="clip-path-126"><rect class="cls-1" x="76.76" y="202.5" width="8" height="8"/></clipPath><clipPath id="clip-path-127"><rect class="cls-1" x="76.26" y="202" width="9" height="9"/></clipPath><clipPath id="clip-path-128"><path class="cls-1" d="M84.76,206.5a4,4,0,1,1-4-4,4,4,0,0,1,4,4"/></clipPath><clipPath id="clip-path-130"><rect class="cls-1" x="76.76" y="230.5" width="8" height="8"/></clipPath><clipPath id="clip-path-131"><rect class="cls-1" x="76.26" y="230" width="9" height="9"/></clipPath><clipPath id="clip-path-132"><path class="cls-1" d="M84.76,234.5a4,4,0,1,1-4-4,4,4,0,0,1,4,4"/></clipPath><clipPath id="clip-path-134"><rect class="cls-1" x="76.76" y="258.5" width="8" height="8"/></clipPath><clipPath id="clip-path-135"><rect class="cls-1" x="76.26" y="258" width="9" height="9"/></clipPath><clipPath id="clip-path-136"><path class="cls-1" d="M84.76,262.5a4,4,0,1,1-4-4,4,4,0,0,1,4,4"/></clipPath><clipPath id="clip-path-138"><rect class="cls-1" x="76.76" y="286.5" width="8" height="8"/></clipPath><clipPath id="clip-path-139"><rect class="cls-1" x="76.26" y="286" width="9" height="9"/></clipPath><clipPath id="clip-path-140"><path class="cls-1" d="M84.76,290.5a4,4,0,1,1-4-4,4,4,0,0,1,4,4"/></clipPath><clipPath id="clip-path-142"><rect class="cls-1" x="76.76" y="314.5" width="8" height="8"/></clipPath><clipPath id="clip-path-143"><rect class="cls-1" x="76.26" y="314" width="9" height="9"/></clipPath><clipPath id="clip-path-144"><path class="cls-1" d="M84.76,318.5a4,4,0,1,1-4-4,4,4,0,0,1,4,4"/></clipPath><clipPath id="clip-path-146"><path class="cls-1" d="M110.76,381.5a33,33,0,0,0,33,33h0a33,33,0,0,0,33-33h0a33,33,0,0,0-66,0Z"/></clipPath></defs><title>hp2</title><g class="cls-2"><g id="Artboard_1" data-name="Artboard 1"><g id="Group_544" data-name="Group 544"><g class="cls-3"><g id="Group_376" data-name="Group 376"><g class="cls-4"><g id="Group_375" data-name="Group 375"><path id="Path_411" data-name="Path 411" class="cls-5" d="M190.75,20.86V395.59H-152V20.86Z"/></g></g></g></g><g class="cls-6"><g id="Group_378" data-name="Group 378"><g class="cls-4"><g id="Group_377" data-name="Group 377"><path id="Path_414" data-name="Path 414" class="cls-7" d="M134.76,430.5v300h-231v-300Z"/></g></g></g></g><g class="cls-4"><g id="Group_385" data-name="Group 385"><g id="Group_379" data-name="Group 379"><path id="Path_417" data-name="Path 417" class="cls-8" d="M21.64,612.23a10.43,10.43,0,0,1,.16-1.85c.69-3.87,3.64-7.41,7.9-9.45a26.16,26.16,0,0,1,9.83-2.08c3.37-.23,7.56-.52,10.33,2.65,1.5,1.74,2.23,4.16,2.23,7.41a24.94,24.94,0,0,1-.17,2.86c-.09.76-.2,1.43-.29,2a11.44,11.44,0,0,0-.17,1.31v.06a10.62,10.62,0,0,0,.43,1.11,13.5,13.5,0,0,1,1.3,4.74c0,.15,0,.31,0,.47a11.14,11.14,0,0,1-4.18,8.4c-3.41,2.82-7.65,3.42-10.78,1.51a11.65,11.65,0,0,1-3.55-3.84,8.78,8.78,0,0,0-1.33-1.75,10.1,10.1,0,0,0-2.2-1.11,19.42,19.42,0,0,1-4.65-2.58A13,13,0,0,1,21.64,612.23Z"/></g><g id="Group_380" data-name="Group 380"><path id="Path_418" data-name="Path 418" class="cls-8" d="M21.64,612.23a10.43,10.43,0,0,1,.16-1.85c.69-3.87,3.64-7.41,7.9-9.45a26.16,26.16,0,0,1,9.83-2.08c3.37-.23,7.56-.52,10.33,2.65,1.5,1.74,2.23,4.16,2.23,7.41a24.94,24.94,0,0,1-.17,2.86c-.09.76-.2,1.43-.29,2a11.44,11.44,0,0,0-.17,1.31v.06a10.62,10.62,0,0,0,.43,1.11,13.5,13.5,0,0,1,1.3,4.74c0,.15,0,.31,0,.47a11.14,11.14,0,0,1-4.18,8.4c-3.41,2.82-7.65,3.42-10.78,1.51a11.65,11.65,0,0,1-3.55-3.84,8.78,8.78,0,0,0-1.33-1.75,10.1,10.1,0,0,0-2.2-1.11,19.42,19.42,0,0,1-4.65-2.58A13,13,0,0,1,21.64,612.23Z"/></g><g id="Group_381" data-name="Group 381"><path id="Path_419" data-name="Path 419" class="cls-8" d="M9,608.54a25.39,25.39,0,0,1,.3-3.89,28,28,0,0,1,14.21-19.86c6.13-3.43,12.53-3.95,17.67-4.37,6.07-.49,13.61-1.1,18.58,5.56,2.72,3.65,4,8.74,4,15.57a60.12,60.12,0,0,1-.31,6c-.16,1.6-.36,3-.52,4.14-.15.91-.25,1.83-.31,2.75a.66.66,0,0,0,0,.14,22.84,22.84,0,0,0,.77,2.32,32.58,32.58,0,0,1,2.33,10c0,.33,0,.67,0,1a25,25,0,0,1-7.53,17.67c-6.14,5.92-13.75,7.17-19.38,3.17-3-2.13-4.89-5.43-6.39-8.09a19.32,19.32,0,0,0-2.4-3.67,18.24,18.24,0,0,0-3.95-2.33,33.32,33.32,0,0,1-8.36-5.42A29.05,29.05,0,0,1,9,608.54Z"/></g><g id="Group_382" data-name="Group 382"><path id="Path_420" data-name="Path 420" class="cls-8" d="M-13.64,600.79a64.07,64.07,0,0,1,.53-8.18c2.22-17.1,11.78-32.73,25.57-41.76,11-7.2,22.53-8.3,31.78-9.18,10.91-1,24.48-2.32,33.41,11.69,4.88,7.68,7.24,18.38,7.24,32.73,0,4-.18,8.29-.56,12.65-.28,3.36-.64,6.33-.93,8.71s-.56,4.61-.56,5.77c0,.1,0,.2,0,.3.16.91.87,3.2,1.39,4.88,1.64,5.25,3.88,12.45,4.2,20.93,0,.7,0,1.4,0,2.11,0,13.72-5.07,27.6-13.55,37.13-11,12.46-24.72,15.08-34.86,6.66-5.44-4.47-8.8-11.41-11.49-17-1.49-3.09-3-6.28-4.31-7.73s-4.27-3.25-7.09-4.89c-4.45-2.6-10-5.83-15-11.38C-7.59,633.64-13.64,617-13.64,600.79Z"/></g><g id="Group_383" data-name="Group 383"><path id="Path_421" data-name="Path 421" class="cls-8" d="M-54.42,584.5a156.81,156.81,0,0,1,1-17.2c4-35.95,21.19-68.8,46-87.77,19.81-15.15,40.52-17.45,57.16-19.3,19.62-2.17,44-4.87,60.1,24.56,8.78,16.16,13,38.64,13,68.8,0,8.48-.34,17.43-1,26.6-.51,7.07-1.16,13.3-1.68,18.3s-1,9.69-1,12.13c0,.21,0,.43,0,.64.28,1.9,1.57,6.73,2.5,10.26,3,11,7,26.15,7.55,44,0,1.48.07,3,.07,4.44,0,28.84-9.11,58-24.36,78.05-19.84,26.19-44.47,31.71-62.7,14-9.8-9.4-15.83-24-20.67-35.71-2.68-6.49-5.45-13.2-7.75-16.25C11.33,706.77,6.09,703.2,1,699.74c-8-5.46-17.95-12.25-27.08-23.93C-43.54,653.54-54.42,618.53-54.42,584.5Z"/></g><g id="Group_384" data-name="Group 384"><path id="Path_422" data-name="Path 422" class="cls-8" d="M48.67,621.19a6.5,6.5,0,0,1-2.53,5.15c-1.64,1.36-4,2.1-5.55,1.14s-2.46-3.65-4.34-5.21-4.77-2-6.91-3.74a8.15,8.15,0,0,1-3.09-7.35c.47-2.64,2.81-4.93,5.41-6.17a22.11,22.11,0,0,1,8.18-1.64c2.73-.19,5.33-.37,6.6,1.1s1.24,4.59,1,6.77-.72,3.44-.37,4.92S48.58,619.35,48.67,621.19Z"/></g></g></g><g class="cls-4"><g id="Group_400" data-name="Group 400"><g id="Group_399" data-name="Group 399" class="cls-9"><g class="cls-10"><g id="Group_398" data-name="Group 398"><g class="cls-11"><g id="Group_391" data-name="Group 391"><g class="cls-12"><g id="Group_390" data-name="Group 390"><g id="Group_389" data-name="Group 389"><g class="cls-13"><g id="Group_388" data-name="Group 388"><g class="cls-14"><g id="Group_387" data-name="Group 387"><g class="cls-15"><g id="Group_386" data-name="Group 386"><path id="Path_424" data-name="Path 424" class="cls-16" d="M59.27,343.37v166h-33v-166Z"/></g></g></g></g></g></g></g></g></g></g></g><g class="cls-17"><g id="Group_393" data-name="Group 393"><g class="cls-12"><g id="Group_392" data-name="Group 392"><path id="Path_429" data-name="Path 429" class="cls-16" d="M104.54,441.17v56.71H79.12V441.17Z"/></g></g></g></g><g class="cls-18"><g id="Group_395" data-name="Group 395"><g class="cls-12"><g id="Group_394" data-name="Group 394"><path id="Path_432" data-name="Path 432" class="cls-16" d="M127.76,373.55V428H94.85V373.55Z"/></g></g></g></g><g class="cls-19"><g id="Group_397" data-name="Group 397"><g class="cls-12"><g id="Group_396" data-name="Group 396"><path id="Path_435" data-name="Path 435" class="cls-16" d="M100.71,336.5V437.07H65.76V336.5Z"/></g></g></g></g></g></g></g></g></g><g class="cls-20"><g id="Group_402" data-name="Group 402"><g class="cls-4"><g id="Group_401" data-name="Group 401"><path id="Path_439" data-name="Path 439" class="cls-21" d="M257.76,141.5v18h-18v-18Z"/></g></g></g></g><g class="cls-22"><g id="Group_404" data-name="Group 404"><g class="cls-4"><g id="Group_403" data-name="Group 403"><path id="Path_442" data-name="Path 442" class="cls-21" d="M257.76,169.5v18h-18v-18Z"/></g></g></g></g><g class="cls-23"><g id="Group_406" data-name="Group 406"><g class="cls-4"><g id="Group_405" data-name="Group 405"><path id="Path_445" data-name="Path 445" class="cls-21" d="M257.76,197.5v18h-18v-18Z"/></g></g></g></g><g class="cls-24"><g id="Group_408" data-name="Group 408"><g class="cls-4"><g id="Group_407" data-name="Group 407"><path id="Path_448" data-name="Path 448" class="cls-21" d="M257.76,225.5v18h-18v-18Z"/></g></g></g></g><g class="cls-25"><g id="Group_410" data-name="Group 410"><g class="cls-4"><g id="Group_409" data-name="Group 409"><path id="Path_451" data-name="Path 451" class="cls-21" d="M257.76,253.5v18h-18v-18Z"/></g></g></g></g><g class="cls-26"><g id="Group_412" data-name="Group 412"><g class="cls-4"><g id="Group_411" data-name="Group 411"><path id="Path_454" data-name="Path 454" class="cls-21" d="M257.76,281.5v18h-18v-18Z"/></g></g></g></g><g class="cls-27"><g id="Group_418" data-name="Group 418"><g class="cls-4"><g id="Group_417" data-name="Group 417"><g id="Group_416" data-name="Group 416"><g class="cls-28"><g id="Group_415" data-name="Group 415"><g class="cls-29"><g id="Group_414" data-name="Group 414"><g class="cls-28"><g id="Group_413" data-name="Group 413"><path id="Path_457" data-name="Path 457" class="cls-21" d="M257.76,309.5v18h-18v-18Z"/></g></g></g></g></g></g></g></g></g></g></g><g class="cls-30"><g id="Group_420" data-name="Group 420"><g class="cls-4"><g id="Group_419" data-name="Group 419"><path id="Path_462" data-name="Path 462" class="cls-21" d="M229.76,141.5v18h-18v-18Z"/></g></g></g></g><g class="cls-31"><g id="Group_422" data-name="Group 422"><g class="cls-4"><g id="Group_421" data-name="Group 421"><path id="Path_465" data-name="Path 465" class="cls-21" d="M229.76,169.5v18h-18v-18Z"/></g></g></g></g><g class="cls-32"><g id="Group_424" data-name="Group 424"><g class="cls-4"><g id="Group_423" data-name="Group 423"><path id="Path_468" data-name="Path 468" class="cls-21" d="M229.76,197.5v18h-18v-18Z"/></g></g></g></g><g class="cls-33"><g id="Group_426" data-name="Group 426"><g class="cls-4"><g id="Group_425" data-name="Group 425"><path id="Path_471" data-name="Path 471" class="cls-21" d="M229.76,225.5v18h-18v-18Z"/></g></g></g></g><g class="cls-34"><g id="Group_428" data-name="Group 428"><g class="cls-4"><g id="Group_427" data-name="Group 427"><path id="Path_474" data-name="Path 474" class="cls-21" d="M229.76,253.5v18h-18v-18Z"/></g></g></g></g><g class="cls-35"><g id="Group_430" data-name="Group 430"><g class="cls-4"><g id="Group_429" data-name="Group 429"><path id="Path_477" data-name="Path 477" class="cls-21" d="M229.76,281.5v18h-18v-18Z"/></g></g></g></g><g class="cls-36"><g id="Group_435" data-name="Group 435"><g id="Group_434" data-name="Group 434"><g class="cls-37"><g id="Group_433" data-name="Group 433"><g class="cls-38"><g id="Group_432" data-name="Group 432"><g class="cls-37"><g id="Group_431" data-name="Group 431"><path id="Path_480" data-name="Path 480" class="cls-21" d="M229.76,309.5v18h-18v-18Z"/></g></g></g></g></g></g></g></g></g><g class="cls-39"><g id="Group_437" data-name="Group 437"><g class="cls-4"><g id="Group_436" data-name="Group 436"><path id="Path_484" data-name="Path 484" class="cls-21" d="M201.76,141.5v18h-18v-18Z"/></g></g></g></g><g class="cls-40"><g id="Group_439" data-name="Group 439"><g class="cls-4"><g id="Group_438" data-name="Group 438"><path id="Path_487" data-name="Path 487" class="cls-21" d="M201.76,169.5v18h-18v-18Z"/></g></g></g></g><g class="cls-41"><g id="Group_441" data-name="Group 441"><g class="cls-4"><g id="Group_440" data-name="Group 440"><path id="Path_490" data-name="Path 490" class="cls-21" d="M201.76,197.5v18h-18v-18Z"/></g></g></g></g><g class="cls-42"><g id="Group_443" data-name="Group 443"><g class="cls-4"><g id="Group_442" data-name="Group 442"><path id="Path_493" data-name="Path 493" class="cls-21" d="M201.76,225.5v18h-18v-18Z"/></g></g></g></g><g class="cls-43"><g id="Group_445" data-name="Group 445"><g class="cls-4"><g id="Group_444" data-name="Group 444"><path id="Path_496" data-name="Path 496" class="cls-21" d="M201.76,253.5v18h-18v-18Z"/></g></g></g></g><g class="cls-44"><g id="Group_447" data-name="Group 447"><g class="cls-4"><g id="Group_446" data-name="Group 446"><path id="Path_499" data-name="Path 499" class="cls-21" d="M201.76,281.5v18h-18v-18Z"/></g></g></g></g><g class="cls-45"><g id="Group_452" data-name="Group 452"><g id="Group_451" data-name="Group 451"><g class="cls-46"><g id="Group_450" data-name="Group 450"><g class="cls-47"><g id="Group_449" data-name="Group 449"><g class="cls-46"><g id="Group_448" data-name="Group 448"><path id="Path_502" data-name="Path 502" class="cls-21" d="M201.76,309.5v18h-18v-18Z"/></g></g></g></g></g></g></g></g></g><g class="cls-48"><g id="Group_454" data-name="Group 454"><g class="cls-4"><g id="Group_453" data-name="Group 453"><path id="Path_506" data-name="Path 506" class="cls-21" d="M173.76,141.5v18h-18v-18Z"/></g></g></g></g><g class="cls-49"><g id="Group_456" data-name="Group 456"><g class="cls-4"><g id="Group_455" data-name="Group 455"><path id="Path_509" data-name="Path 509" class="cls-21" d="M173.76,169.5v18h-18v-18Z"/></g></g></g></g><g class="cls-50"><g id="Group_458" data-name="Group 458"><g class="cls-4"><g id="Group_457" data-name="Group 457"><path id="Path_512" data-name="Path 512" class="cls-21" d="M173.76,197.5v18h-18v-18Z"/></g></g></g></g><g class="cls-51"><g id="Group_460" data-name="Group 460"><g class="cls-4"><g id="Group_459" data-name="Group 459"><path id="Path_515" data-name="Path 515" class="cls-21" d="M173.76,225.5v18h-18v-18Z"/></g></g></g></g><g class="cls-52"><g id="Group_462" data-name="Group 462"><g class="cls-4"><g id="Group_461" data-name="Group 461"><path id="Path_518" data-name="Path 518" class="cls-21" d="M173.76,253.5v18h-18v-18Z"/></g></g></g></g><g class="cls-53"><g id="Group_464" data-name="Group 464"><g class="cls-4"><g id="Group_463" data-name="Group 463"><path id="Path_521" data-name="Path 521" class="cls-21" d="M173.76,281.5v18h-18v-18Z"/></g></g></g></g><g class="cls-54"><g id="Group_469" data-name="Group 469"><g id="Group_468" data-name="Group 468"><g class="cls-55"><g id="Group_467" data-name="Group 467"><g class="cls-56"><g id="Group_466" data-name="Group 466"><g class="cls-55"><g id="Group_465" data-name="Group 465"><path id="Path_524" data-name="Path 524" class="cls-21" d="M173.76,309.5v18h-18v-18Z"/></g></g></g></g></g></g></g></g></g><g class="cls-57"><g id="Group_471" data-name="Group 471"><g class="cls-4"><g id="Group_470" data-name="Group 470"><path id="Path_528" data-name="Path 528" class="cls-21" d="M145.76,141.5v18h-18v-18Z"/></g></g></g></g><g class="cls-58"><g id="Group_473" data-name="Group 473"><g class="cls-4"><g id="Group_472" data-name="Group 472"><path id="Path_531" data-name="Path 531" class="cls-21" d="M145.76,169.5v18h-18v-18Z"/></g></g></g></g><g class="cls-59"><g id="Group_475" data-name="Group 475"><g class="cls-4"><g id="Group_474" data-name="Group 474"><path id="Path_534" data-name="Path 534" class="cls-21" d="M145.76,197.5v18h-18v-18Z"/></g></g></g></g><g class="cls-60"><g id="Group_477" data-name="Group 477"><g class="cls-4"><g id="Group_476" data-name="Group 476"><path id="Path_537" data-name="Path 537" class="cls-21" d="M145.76,225.5v18h-18v-18Z"/></g></g></g></g><g class="cls-61"><g id="Group_479" data-name="Group 479"><g class="cls-4"><g id="Group_478" data-name="Group 478"><path id="Path_540" data-name="Path 540" class="cls-21" d="M145.76,253.5v18h-18v-18Z"/></g></g></g></g><g class="cls-62"><g id="Group_481" data-name="Group 481"><g class="cls-4"><g id="Group_480" data-name="Group 480"><path id="Path_543" data-name="Path 543" class="cls-21" d="M145.76,281.5v18h-18v-18Z"/></g></g></g></g><g class="cls-63"><g id="Group_487" data-name="Group 487"><g class="cls-4"><g id="Group_486" data-name="Group 486"><g id="Group_485" data-name="Group 485"><g class="cls-64"><g id="Group_484" data-name="Group 484"><g class="cls-65"><g id="Group_483" data-name="Group 483"><g class="cls-64"><g id="Group_482" data-name="Group 482"><path id="Path_546" data-name="Path 546" class="cls-21" d="M145.76,309.5v18h-18v-18Z"/></g></g></g></g></g></g></g></g></g></g></g><g class="cls-66"><g id="Group_489" data-name="Group 489"><g class="cls-4"><g id="Group_488" data-name="Group 488"><path id="Path_551" data-name="Path 551" class="cls-21" d="M117.76,141.5v18h-18v-18Z"/></g></g></g></g><g class="cls-67"><g id="Group_491" data-name="Group 491"><g class="cls-4"><g id="Group_490" data-name="Group 490"><path id="Path_554" data-name="Path 554" class="cls-21" d="M117.76,169.5v18h-18v-18Z"/></g></g></g></g><g class="cls-68"><g id="Group_493" data-name="Group 493"><g class="cls-4"><g id="Group_492" data-name="Group 492"><path id="Path_557" data-name="Path 557" class="cls-21" d="M117.76,197.5v18h-18v-18Z"/></g></g></g></g><g class="cls-69"><g id="Group_495" data-name="Group 495"><g class="cls-4"><g id="Group_494" data-name="Group 494"><path id="Path_560" data-name="Path 560" class="cls-21" d="M117.76,225.5v18h-18v-18Z"/></g></g></g></g><g class="cls-70"><g id="Group_497" data-name="Group 497"><g class="cls-4"><g id="Group_496" data-name="Group 496"><path id="Path_563" data-name="Path 563" class="cls-21" d="M117.76,253.5v18h-18v-18Z"/></g></g></g></g><g class="cls-71"><g id="Group_499" data-name="Group 499"><g class="cls-4"><g id="Group_498" data-name="Group 498"><path id="Path_566" data-name="Path 566" class="cls-21" d="M117.76,281.5v18h-18v-18Z"/></g></g></g></g><g class="cls-72"><g id="Group_504" data-name="Group 504"><g id="Group_503" data-name="Group 503"><g class="cls-73"><g id="Group_502" data-name="Group 502"><g class="cls-74"><g id="Group_501" data-name="Group 501"><g class="cls-73"><g id="Group_500" data-name="Group 500"><path id="Path_569" data-name="Path 569" class="cls-21" d="M117.76,309.5v18h-18v-18Z"/></g></g></g></g></g></g></g></g></g><g class="cls-75"><g id="Group_509" data-name="Group 509"><g id="Group_508" data-name="Group 508"><g class="cls-76"><g id="Group_507" data-name="Group 507"><g class="cls-77"><g id="Group_506" data-name="Group 506"><g class="cls-76"><g id="Group_505" data-name="Group 505"><path id="Path_573" data-name="Path 573" class="cls-21" d="M89.76,141.5v18h-18v-18Z"/></g></g></g></g></g></g></g></g></g><g class="cls-78"><g id="Group_514" data-name="Group 514"><g id="Group_513" data-name="Group 513"><g class="cls-79"><g id="Group_512" data-name="Group 512"><g class="cls-80"><g id="Group_511" data-name="Group 511"><g class="cls-79"><g id="Group_510" data-name="Group 510"><path id="Path_577" data-name="Path 577" class="cls-21" d="M89.76,169.5v18h-18v-18Z"/></g></g></g></g></g></g></g></g></g><g class="cls-81"><g id="Group_519" data-name="Group 519"><g id="Group_518" data-name="Group 518"><g class="cls-82"><g id="Group_517" data-name="Group 517"><g class="cls-83"><g id="Group_516" data-name="Group 516"><g class="cls-82"><g id="Group_515" data-name="Group 515"><path id="Path_581" data-name="Path 581" class="cls-21" d="M89.76,197.5v18h-18v-18Z"/></g></g></g></g></g></g></g></g></g><g class="cls-84"><g id="Group_524" data-name="Group 524"><g id="Group_523" data-name="Group 523"><g class="cls-85"><g id="Group_522" data-name="Group 522"><g class="cls-86"><g id="Group_521" data-name="Group 521"><g class="cls-85"><g id="Group_520" data-name="Group 520"><path id="Path_585" data-name="Path 585" class="cls-21" d="M89.76,225.5v18h-18v-18Z"/></g></g></g></g></g></g></g></g></g><g class="cls-87"><g id="Group_529" data-name="Group 529"><g id="Group_528" data-name="Group 528"><g class="cls-88"><g id="Group_527" data-name="Group 527"><g class="cls-89"><g id="Group_526" data-name="Group 526"><g class="cls-88"><g id="Group_525" data-name="Group 525"><path id="Path_589" data-name="Path 589" class="cls-21" d="M89.76,253.5v18h-18v-18Z"/></g></g></g></g></g></g></g></g></g><g class="cls-90"><g id="Group_534" data-name="Group 534"><g id="Group_533" data-name="Group 533"><g class="cls-91"><g id="Group_532" data-name="Group 532"><g class="cls-92"><g id="Group_531" data-name="Group 531"><g class="cls-91"><g id="Group_530" data-name="Group 530"><path id="Path_593" data-name="Path 593" class="cls-21" d="M89.76,281.5v18h-18v-18Z"/></g></g></g></g></g></g></g></g></g><g class="cls-93"><g id="Group_539" data-name="Group 539"><g id="Group_538" data-name="Group 538"><g class="cls-94"><g id="Group_537" data-name="Group 537"><g class="cls-95"><g id="Group_536" data-name="Group 536"><g class="cls-94"><g id="Group_535" data-name="Group 535"><path id="Path_597" data-name="Path 597" class="cls-21" d="M89.76,309.5v18h-18v-18Z"/></g></g></g></g></g></g></g></g></g><g class="cls-96"><g id="Group_541" data-name="Group 541"><g class="cls-4"><g id="Group_540" data-name="Group 540"><path id="Path_601" data-name="Path 601" class="cls-7" d="M181.76,343.5v76h-76v-76Z"/></g></g></g></g><g class="cls-4"><g id="Group_543" data-name="Group 543"><g id="Group_542" data-name="Group 542"><path id="Path_604" data-name="Path 604" class="cls-97" d="M108,294.42c5.6,2.23,9.57,7.23,13,12.22,4.42,6.51,8.4,13.51,10,21.22s.73,16.24-3.94,22.59-13.52,9.81-20.86,6.95c-3.52-1.37-6.69-4.52-6.71-8.29,0-3.3,2.42-6.22,5.34-7.76s6.28-2,9.56-2.39c2.74-.34,5.59-.68,8.2.23,4.75,1.64,7.22,6.76,9,11.45q3.15,8.19,5.66,16.6c2.6,8.71,5.61,18.73,13.95,22.32a14.57,14.57,0,0,0,20.14-15.8c-.37-2.21-1.38-4.47-3.33-5.59-3.65-2.12-8.65,1.41-9,5.61s2.69,8.07,6.39,10.1,8,2.66,12.09,3.52c7.56,1.58,15.07,4.14,21.24,8.78s10.9,11.61,11.56,19.3"/></g></g></g></g></g></g></svg>