<svg width="18" height="18" viewBox="0 0 18 18" fill="none" xmlns="http://www.w3.org/2000/svg">
<g clip-path="url(#clip0)">
<path d="M12 16.5V13.5975C12.0281 13.2399 11.9798 12.8803 11.8583 12.5428C11.7367 12.2053 11.5447 11.8976 11.295 11.64C13.65 11.3775 16.125 10.485 16.125 6.38999C16.1248 5.34286 15.722 4.33588 15 3.57749C15.3419 2.66137 15.3177 1.64875 14.9325 0.749986C14.9325 0.749986 14.0475 0.487486 12 1.85999C10.281 1.3941 8.46899 1.3941 6.75 1.85999C4.7025 0.487486 3.8175 0.749986 3.8175 0.749986C3.43228 1.64875 3.40811 2.66137 3.75 3.57749C3.0226 4.34151 2.61939 5.35758 2.625 6.41249C2.625 10.4775 5.1 11.37 7.455 11.6625C7.20825 11.9175 7.01795 12.2215 6.89648 12.5549C6.77502 12.8883 6.72511 13.2435 6.75 13.5975V16.5M6.75 14.25C3 15.375 3 12.375 1.5 12L6.75 14.25Z" stroke="#4189FF" stroke-width="1.5" stroke-linecap="round" stroke-linejoin="round"/>
</g>
<defs>
<clipPath id="clip0">
<rect width="18" height="18" fill="white"/>
</clipPath>
</defs>
</svg>
