<svg width="18" height="18" viewBox="0 0 18 18" fill="none" xmlns="http://www.w3.org/2000/svg">
<path d="M12.75 1.5H5.25C3.17893 1.5 1.5 3.17893 1.5 5.25V12.75C1.5 14.8211 3.17893 16.5 5.25 16.5H12.75C14.8211 16.5 16.5 14.8211 16.5 12.75V5.25C16.5 3.17893 14.8211 1.5 12.75 1.5Z" stroke="#4189FF" stroke-width="1.5" stroke-linecap="round" stroke-linejoin="round"/>
<path d="M12 8.52749C12.0926 9.15167 11.986 9.78915 11.6953 10.3492C11.4047 10.9093 10.9449 11.3635 10.3812 11.6472C9.8176 11.9309 9.17886 12.0297 8.55586 11.9294C7.93287 11.8292 7.35734 11.535 6.91115 11.0889C6.46496 10.6427 6.17082 10.0671 6.07058 9.44415C5.97033 8.82115 6.06907 8.18241 6.35277 7.61877C6.63647 7.05513 7.09066 6.59529 7.65076 6.30467C8.21086 6.01404 8.84834 5.90743 9.47252 5.99999C10.1092 6.0944 10.6987 6.39108 11.1538 6.84622C11.6089 7.30135 11.9056 7.89079 12 8.52749Z" stroke="#4189FF" stroke-width="1.5" stroke-linecap="round" stroke-linejoin="round"/>
<path d="M13.125 4.875H13.1325" stroke="#4189FF" stroke-width="1.5" stroke-linecap="round" stroke-linejoin="round"/>
</svg>
