<svg width="60" height="60" viewBox="0 0 60 60" fill="none" xmlns="http://www.w3.org/2000/svg">
<path d="M13.7816 6.20884C13.6436 6.84065 13.7978 8.29165 13.7833 9.04307C14.0183 8.83053 19.9109 9.03543 20.3115 9.04307C22.054 9.07807 23.8621 9.07552 25.4695 9.07552C27.7929 9.07616 30.0786 8.96862 32.2071 9.26897C36.0557 9.81176 38.8892 12.2476 40.298 15.1951C41.1055 16.8846 41.5889 18.9355 41.3616 20.9921C41.1234 23.1461 40.4152 24.7153 39.4599 26.114C38.0396 28.1922 36.0487 29.7659 33.2707 30.4296C32.3179 30.6568 31.2938 30.7242 30.1436 30.8158C30.0372 31.2352 30.0793 31.8079 30.0793 32.3615C30.0793 32.8998 29.9876 33.5012 30.2086 33.8429C31.6186 33.9797 32.9732 33.7862 34.1413 33.4566C37.7129 32.448 40.147 30.5626 42.0392 27.9492C43.3047 26.2005 44.1072 24.072 44.4568 21.4427C44.8058 18.8197 44.1594 15.9855 43.1996 13.9708C41.3278 10.0415 37.9218 7.15889 33.1102 6.20884C31.7988 5.94986 30.4213 5.97404 28.952 5.91868C24.5072 5.75132 18.1404 6.17957 13.7816 6.20884Z" fill="#384EDD"/>
<path d="M13.9962 15.9808C13.879 17.9528 13.9788 17.3647 14.0605 19.3703C14.3853 19.2844 15.2687 19.2036 15.5432 19.3703C15.661 22.1371 15.5432 33.6857 15.5432 36.5167C15.5432 36.9233 15.617 37.3452 15.4463 37.7079C14.5101 37.8899 13.16 37.657 12.2225 37.8365C12.1155 38.6592 12.1167 39.9128 12.2225 40.7356C13.0619 40.8597 13.9567 40.7681 14.898 40.7681C15.831 40.7687 16.9214 40.931 17.6703 40.7031C18.7174 40.3863 18.6371 39.2867 18.6371 37.9338C18.6371 33.6341 18.7014 19.9101 18.5403 15.9808C16.1724 15.7899 16.3361 15.8821 13.9962 15.9808Z" fill="#384EDD"/>
<path d="M30.0191 41.6784C29.9395 42.4776 29.8694 43.9036 30.0516 44.7061C31.7202 45.0204 33.171 44.225 33.8869 43.0961C34.1824 42.6303 34.3569 42.0856 34.4995 41.5174C34.5091 40.8098 34.5116 40.1372 34.3384 39.6173C33.927 38.3841 32.7602 37.2991 31.2113 37.0726C30.5229 36.9721 29.4682 37.0134 28.4715 37.0083C27.4926 37.0033 26.3711 36.9536 25.6348 37.0083C25.3126 37.3787 25.6266 37.9344 25.6348 38.3786C25.645 38.9086 25.6348 42.2581 25.6348 42.2581L28.4715 40.2619C28.6829 40.0793 29.8465 40.2384 30.2764 40.2619C30.8827 40.2956 31.24 40.4261 31.2438 40.9701C31.2565 41.6262 30.3847 41.3997 30.0191 41.6784Z" fill="#384EDD"/>
<path d="M17.229 53.9187C17.0869 53.2684 17.1966 51.5369 17.1711 50.807C17.4061 51.0195 23.3583 50.802 23.7589 50.7943C25.5014 50.7593 27.3094 50.7619 28.9169 50.7619C31.2403 50.7612 33.526 50.8688 35.6545 50.5684C39.5031 50.0256 42.3366 47.5897 43.7454 44.6423C44.5529 42.9528 45.0363 40.9019 44.809 38.8453C44.5708 36.6913 43.8626 35.1221 42.9072 33.7234C41.487 31.6452 39.4961 30.0715 36.7181 29.4078L39.1037 26.947C42.4933 28.4092 43.5944 29.2748 45.4866 31.8882C46.7521 33.6369 47.5545 35.7654 47.9042 38.3947C48.2532 41.0177 47.6068 43.8519 46.647 45.8666C44.7752 49.7959 41.3692 52.6785 36.5576 53.6285C35.2462 53.8875 33.8687 53.8633 32.3994 53.9187C27.9546 54.0861 21.5878 53.948 17.229 53.9187Z" fill="#384EDD"/>
<path fill-rule="evenodd" clip-rule="evenodd" d="M30.056 26.6028C29.8738 25.8004 29.9439 24.3744 30.0235 23.5752C30.3891 23.2965 31.261 23.523 31.2482 22.8669C31.2444 22.3229 30.8871 22.1924 30.2808 22.1587C29.8509 22.1352 28.9453 22.0722 28.7338 22.2548C28.5103 22.4482 28.6045 23.488 28.6045 24.1549C28.6045 26.1918 28.6211 28.452 28.5721 30.3388C28.537 31.6871 28.6682 33.089 28.6045 34.4297C28.4192 38.3165 29.0459 43.0807 27.9919 46.2178C27.4875 47.7195 26.7092 49.122 25.7029 50.2108C25.366 50.576 25.0629 51.0005 24.7361 51.3065C23.4331 52.5245 21.6492 53.3199 19.4819 53.7545C17.8642 54.0784 15.9001 53.9473 13.9372 53.948C13.3418 53.948 12.7284 54.0485 12.1642 53.8831C12.131 52.9572 12.0699 51.7284 12.1966 50.8554C13.5838 50.6906 15.0722 50.7765 16.4841 50.7911C17.9865 50.8058 19.245 50.6785 20.3844 50.2432C21.4346 49.8423 22.302 49.2652 23.0924 48.5048C24.1903 47.4485 24.8807 46.1739 25.2845 44.4138C25.4953 43.4956 25.4781 42.4418 25.4781 41.3219C25.4781 34.9216 25.4456 28.4291 25.4456 21.9003C25.4456 21.3569 25.4558 20.788 25.4456 20.258C25.4373 19.8138 25.317 19.2755 25.6392 18.9051C26.3755 18.8504 27.497 18.9 28.4759 18.9051C29.4726 18.9102 30.5273 18.8689 31.2157 18.9694C32.7646 19.1959 33.9314 20.2809 34.3428 21.5141C34.516 22.034 34.5135 22.7066 34.5039 23.4142C34.3613 23.9824 34.1868 24.5271 33.8913 24.9929C33.1754 26.1218 31.7246 26.9172 30.056 26.6028Z" fill="#384EDD"/>
</svg>
